<?xml version="1.0" standalone="no"?>
<!DOCTYPE svg PUBLIC "-//W3C//DTD SVG 20010904//EN"
 "http://www.w3.org/TR/2001/REC-SVG-20010904/DTD/svg10.dtd">
<svg version="1.0" xmlns="http://www.w3.org/2000/svg"
 width="700.000000pt" height="700.000000pt" viewBox="0 0 700.000000 700.000000"
 preserveAspectRatio="xMidYMid meet">
<metadata>
Created by potrace 1.11, written by Peter Selinger 2001-2013
</metadata>
<g transform="translate(0.000000,700.000000) scale(0.100000,-0.100000)"
fill="#000000" stroke="none">
<path d="M3360 6520 l0 -370 130 0 130 0 0 370 0 370 -130 0 -130 0 0 -370z"/>
<path d="M4291 6347 c-54 -142 -111 -321 -104 -326 10 -10 224 -83 228 -79 2
2 22 57 45 123 23 66 50 143 60 171 l18 52 -119 40 -120 41 -8 -22z"/>
<path d="M2530 6298 c-58 -27 -106 -51 -108 -53 -2 -1 34 -77 79 -168 l83
-165 110 55 c82 40 110 59 108 70 -6 28 -152 313 -160 312 -4 0 -54 -23 -112
-51z"/>
<path d="M5140 5910 l-265 -258 90 -91 90 -91 263 263 262 262 -87 87 -88 87
-265 -259z"/>
<path d="M1505 6070 l-90 -90 263 -263 262 -262 90 90 90 90 -263 263 -262
262 -90 -90z"/>
<path d="M3355 5874 c-496 -50 -887 -242 -1208 -593 -254 -277 -416 -627 -461
-995 l-11 -91 -373 -3 -373 -2 3 -128 3 -127 2565 0 2565 0 3 127 3 128 -383
2 -383 3 -7 60 c-60 519 -324 971 -750 1283 -220 162 -503 275 -798 322 -72
11 -332 20 -395 14z m380 -270 c295 -44 576 -180 812 -391 264 -235 456 -608
498 -965 l6 -58 -1561 0 -1561 0 6 58 c42 363 240 740 514 979 361 316 815
449 1286 377z"/>
<path d="M5505 5098 c-88 -44 -161 -82 -163 -83 -4 -4 107 -225 113 -225 10 0
325 160 325 165 0 7 -109 225 -113 224 -1 0 -74 -36 -162 -81z"/>
<path d="M1256 4994 c-21 -63 -36 -117 -34 -119 6 -7 322 -115 335 -115 10 0
83 198 83 226 0 9 -318 125 -340 124 -3 0 -23 -52 -44 -116z"/>
<path d="M1500 3485 l0 -125 1995 0 1995 0 0 125 0 125 -1995 0 -1995 0 0
-125z"/>
<path d="M2032 2913 l3 -128 1465 0 1465 0 3 128 3 127 -1471 0 -1471 0 3
-127z"/>
<path d="M666 2095 c-106 -38 -174 -171 -191 -375 -13 -165 29 -298 109 -345
23 -13 72 -35 109 -48 78 -29 101 -46 131 -102 29 -56 31 -245 2 -320 -36 -92
-82 -135 -146 -135 -92 0 -160 91 -160 214 0 56 -11 88 -26 74 -2 -3 -7 -72
-11 -155 l-6 -151 39 -25 c171 -112 343 5 400 272 19 91 18 254 -2 322 -29 99
-68 133 -206 178 -49 16 -76 32 -102 61 -42 46 -51 86 -49 200 3 177 77 288
173 260 73 -21 105 -73 115 -187 5 -56 11 -83 20 -83 9 0 14 38 19 136 8 156
8 156 -77 199 -57 28 -85 30 -141 10z"/>
<path d="M3599 2096 c-240 -64 -375 -474 -308 -931 54 -365 257 -560 474 -455
71 34 105 70 120 127 7 29 10 55 6 58 -4 2 -23 -12 -42 -32 -44 -46 -102 -73
-162 -73 -126 0 -224 118 -280 338 -19 76 -22 114 -22 297 0 185 3 221 23 299
66 263 200 362 359 265 56 -35 73 -75 73 -173 0 -68 3 -86 14 -86 15 0 18 24
32 212 l6 86 -46 27 c-49 29 -135 55 -176 54 -14 0 -46 -6 -71 -13z"/>
<path d="M4259 2101 c-148 -45 -249 -222 -290 -509 -15 -110 -6 -402 16 -502
62 -276 181 -424 328 -407 100 12 181 84 248 223 169 348 136 932 -63 1126
-67 65 -160 92 -239 69z m121 -97 c97 -49 159 -214 180 -476 30 -376 -43 -691
-175 -749 -193 -85 -340 255 -322 744 6 168 24 271 64 359 28 64 87 124 130
134 16 3 33 7 38 9 14 4 56 -6 85 -21z"/>
<path d="M5656 2095 c-101 -36 -166 -156 -187 -346 -19 -175 17 -313 95 -367
19 -13 69 -36 112 -52 42 -16 90 -41 106 -57 72 -69 79 -285 14 -413 -53 -106
-164 -120 -239 -30 -32 38 -47 88 -47 162 0 49 -12 80 -25 66 -3 -2 -7 -72
-11 -154 l-7 -151 31 -21 c73 -52 164 -62 234 -26 76 39 155 180 179 318 15
89 7 279 -14 326 -35 79 -67 104 -191 146 -127 43 -160 98 -159 259 2 181 75
293 173 265 73 -21 105 -73 115 -187 5 -56 11 -83 20 -83 9 0 14 38 19 136 8
156 8 156 -77 199 -57 28 -85 30 -141 10z"/>
<path d="M5045 2053 c-28 -159 -258 -1205 -270 -1231 -8 -18 -26 -37 -40 -42
-18 -7 -25 -17 -25 -37 l0 -28 107 2 c108 1 108 2 111 27 3 21 -2 27 -25 32
-15 4 -34 11 -40 17 -20 15 -14 97 15 242 l27 130 140 0 139 0 13 -65 c29
-137 51 -283 46 -296 -3 -8 -23 -19 -45 -24 -34 -10 -39 -15 -36 -36 l3 -25
128 -2 127 -2 0 28 c0 20 -7 30 -25 37 -14 5 -30 20 -35 32 -13 29 -61 249
-181 825 -78 375 -97 453 -110 453 -11 0 -19 -12 -24 -37z m60 -516 c32 -152
56 -280 53 -282 -3 -3 -57 -4 -120 -3 l-114 3 52 248 c29 137 55 264 59 284 3
19 8 33 10 32 1 -2 29 -129 60 -282z"/>
<path d="M972 2045 c3 -24 9 -30 36 -36 18 -4 36 -10 40 -14 4 -3 10 -237 13
-518 7 -543 10 -581 58 -676 47 -91 144 -134 255 -111 71 15 115 51 152 126
52 106 55 142 64 664 4 267 11 493 15 502 4 10 25 23 47 28 34 10 39 14 36 36
-3 25 -3 26 -116 27 l-113 2 3 -30 c2 -24 8 -31 33 -35 56 -10 56 -11 52 -520
-3 -450 -4 -467 -25 -532 -27 -82 -71 -132 -130 -147 -86 -23 -156 9 -196 91
-39 80 -48 217 -44 680 3 431 2 424 61 430 28 3 32 7 32 31 l0 28 -138 2 -138
2 3 -30z"/>
<path d="M1722 2045 c2 -24 9 -30 36 -36 18 -4 36 -10 40 -14 9 -8 15 -1127 7
-1172 -5 -28 -12 -34 -45 -43 -34 -9 -40 -15 -40 -38 l0 -27 112 2 c112 2 113
2 116 27 3 21 -2 26 -36 36 -22 5 -43 17 -46 26 -3 9 -6 246 -6 527 l1 512 98
-245 c54 -135 156 -390 226 -567 l127 -322 44 -15 44 -15 0 647 c0 356 4 653
9 660 5 8 24 17 42 21 29 6 34 11 34 35 l0 27 -113 2 -113 2 3 -30 c2 -24 8
-31 33 -35 55 -10 55 -10 53 -571 l-3 -513 -226 570 -226 569 -87 5 -87 5 3
-30z"/>
<path d="M5964 2069 c-2 -3 -1 -74 3 -158 4 -109 9 -151 18 -151 9 0 14 29 17
98 2 53 7 103 11 110 6 8 36 12 93 12 l84 0 0 -581 c0 -381 -4 -587 -10 -600
-6 -10 -19 -19 -30 -19 -34 0 -50 -12 -50 -39 l0 -26 140 0 140 0 0 27 c0 23
-6 29 -39 38 -21 5 -42 17 -45 26 -3 9 -6 276 -6 595 l0 579 85 0 c103 0 105
-2 105 -129 0 -71 3 -91 14 -91 11 0 15 32 21 151 4 82 5 152 2 155 -7 7 -548
10 -553 3z"/>
<path d="M2783 2055 c-12 -8 -40 -50 -64 -92 -42 -76 -43 -80 -47 -188 -3 -60
1 -152 8 -203 l13 -93 -32 -45 c-42 -57 -86 -155 -100 -222 -26 -125 -7 -331
38 -421 26 -51 82 -98 126 -107 50 -9 119 28 171 92 l41 51 53 -60 c55 -61
108 -92 138 -82 19 6 102 127 102 149 0 22 -16 28 -30 11 -29 -35 -90 -12
-159 59 l-44 45 21 53 c11 29 25 69 31 88 16 53 31 204 24 246 l-6 37 54 -6
c30 -3 61 -8 71 -12 14 -6 17 3 20 62 2 37 3 69 2 71 0 1 -63 -1 -139 -5
l-137 -6 -14 -33 c-20 -48 -18 -52 27 -59 51 -9 59 -29 61 -151 1 -87 -25
-224 -43 -224 -13 0 -100 206 -157 370 l-40 115 39 64 c110 181 135 426 51
492 -30 23 -50 24 -79 4z m35 -108 c23 -27 33 -106 22 -173 -11 -68 -62 -194
-78 -194 -13 0 -34 225 -26 285 10 81 50 121 82 82z m-84 -622 c21 -71 66
-188 130 -339 l46 -109 -38 -38 c-49 -48 -82 -57 -124 -32 -92 53 -146 293
-103 456 18 70 54 143 64 131 4 -5 15 -36 25 -69z"/>
</g>
</svg>
