<svg width="130" height="130" xmlns="http://www.w3.org/2000/svg">
 <g>
  <title>background</title>
  <rect x="-1" y="-1" width="132" height="132" id="canvas_background" fill="white"/>
 </g>

 <g>
  <title>Layer 1</title>
  <g id="_x35__7_">
   <g id="svg_1">
    <path fill="#000000" d="m67.170002,2l-4.708,0l0,13.866l4.708,0l0,-13.866zm36.536,16.664l-3.326,-3.332l-9.819,9.793l3.325,3.332l9.82,-9.793zm-64.33,6.729l-9.77,-9.841l-3.341,3.316l9.77,9.841l3.341,-3.316zm61.848,15.706l6.163,-3.041l-2.083,-4.221l-6.164,3.04l2.084,4.222zm-49.021,-22.952l-3.026,-6.171l-4.227,2.071l3.026,6.171l4.227,-2.071zm-21.604,19.119l-6.495,-2.25l-1.542,4.448l6.495,2.25l1.542,-4.448zm53.665,-24.024l-4.444,-1.552l-2.266,6.488l4.444,1.552l2.266,-6.488zm14.279,38.981c-1.236,-17.529 -15.885,-31.415 -33.727,-31.415c-17.841,0 -32.49,13.887 -33.726,31.415l-13.788,0l0,4.707l95.396,0l0,-4.707l-14.155,0zm-62.733,0c1.225,-14.931 13.762,-26.708 29.006,-26.708c15.245,0 27.781,11.777 29.006,26.708l-58.012,0zm-7.874,15.38l74.107,0l0,-4.707l-74.107,0l0,4.707zm9.77,10.673l54.518,0l0,-4.707l-54.518,0l0,4.707z" clip-rule="evenodd" fill-rule="evenodd" id="svg_2"/>
   </g>
  </g>
  <g id="svg_3"/>
  <g id="svg_4"/>
  <g id="svg_5"/>
  <g id="svg_6"/>
  <g id="svg_7"/>
  <g id="svg_8"/>
  <g id="svg_9"/>
  <g id="svg_10"/>
  <g id="svg_11"/>
  <g id="svg_12"/>
  <g id="svg_13"/>
  <g id="svg_14"/>
  <g id="svg_15"/>
  <g id="svg_16"/>
  <g id="svg_17"/>
  <text fill="#000000" stroke-width="0" x="106.132328" y="154.08094" id="svg_18" font-size="24" font-family="'Palatino Linotype', 'Book Antiqua', Palatino, serif" text-anchor="start" xml:space="preserve" transform="matrix(0.7452280574412663,0,0,1.5157193980000974,-70.74780371203754,-116.93366076046524) " stroke="#000">SUN&amp;COAST</text>
 </g>
</svg>